<svg width="153" height="31" viewBox="0 0 153 31" fill="none" xmlns="http://www.w3.org/2000/svg">
<g clip-path="url(#clip0_219_1873)">
<path d="M10.2228 29.6885H4.50347V15.431H0.607422V10.7887H4.50347V7.48586C4.50347 3.5716 6.22654 0.76416 11.9307 0.76416C13.1371 0.76416 15.0314 1.00702 15.0314 1.00702V5.31774H13.0417C11.0145 5.31774 10.2234 5.9346 10.2234 7.63886V10.7887H14.9555L14.5341 15.431H10.2234V29.6885H10.2228ZM23.3462 10.4178C23.263 10.4178 23.1774 10.4208 23.0924 10.4226C17.789 10.4226 15.3629 14.4116 15.3629 20.0744C15.3629 27.2083 18.5103 30.0631 23.1343 30.0631C25.7796 30.0631 27.5179 28.9496 28.5743 26.8714V29.6897H34.0143V10.7905H28.5743V13.6969C27.7116 11.8269 25.9253 10.4396 23.3468 10.4172L23.3462 10.4178ZM24.7293 14.8839C26.9569 14.8839 28.2938 16.4376 28.2938 19.0805L28.2987 21.7799C28.2987 23.5612 27.1943 25.6449 24.7293 25.6449C20.9389 25.6449 21.0403 21.5522 21.0403 20.1891C21.0403 15.604 23.0596 14.8839 24.7293 14.8839ZM36.2104 20.242C36.2104 17.9451 36.1005 10.4305 45.8913 10.4305C49.8213 10.4305 51.4625 11.68 51.4625 11.68L50.1431 15.771C50.1431 15.771 48.5038 14.8687 46.3685 14.8687C43.6333 14.8687 41.8878 16.4546 41.8878 19.2444L41.8908 21.245C41.8908 23.9261 43.575 25.7154 46.374 25.7154C48.3193 25.7154 50.1128 24.8047 50.1128 24.8047L51.4285 28.81C51.4285 28.81 49.9282 30.0674 45.918 30.0674C36.5959 30.0674 36.2098 23.325 36.2098 20.242H36.2104ZM83.3594 10.4232C88.6628 10.4232 91.1278 14.4122 91.1278 20.0756C91.1278 27.2096 87.9804 30.0643 83.3564 30.0643C80.711 30.0643 78.7554 28.9508 77.699 26.8726V29.691L72.3276 29.6885V1.33852L78.0311 0.841268V13.4413C78.8544 11.2368 81.5592 10.4232 83.36 10.4232H83.3594ZM81.7608 14.8839C79.5332 14.8839 78.0305 16.4376 78.0305 19.0805L78.025 21.7799C78.0214 23.5612 79.0657 25.6449 81.7608 25.6449C85.5506 25.6449 85.4498 21.5522 85.4498 20.1891C85.4498 15.604 83.4304 14.8839 81.7608 14.8839ZM61.3583 10.4384C55.3427 10.4384 52.1673 13.7182 52.1673 19.5462V20.6293C52.1673 28.1937 56.6268 30.1415 61.9436 30.1415C67.2604 30.1415 69.4509 28.6958 69.4509 28.6958L68.3836 24.8465C68.3836 24.8465 65.632 26.0171 62.6278 26.0171C59.6237 26.0171 58.1738 25.2236 57.8302 22.2304H69.9069V19.1424C69.9069 12.8202 66.343 10.4384 61.3583 10.4384ZM61.5034 14.2926C63.5853 14.2926 64.935 15.5694 64.8609 18.5304H57.8411C57.9632 15.414 59.4179 14.2926 61.504 14.2926H61.5034ZM102.5 10.4123C96.3225 10.4123 93.0701 13.8931 93.0701 20.1315C93.0701 28.6904 98.6758 30.0686 102.51 30.0686C108.122 30.0686 111.856 27.0468 111.856 20.2092C111.856 13.3715 107.658 10.4123 102.5 10.4123ZM102.422 14.8991C105.138 14.8991 106.215 16.9318 106.215 19.2462V21.2359C106.215 24.039 104.709 25.6601 102.412 25.6601C100.264 25.6601 98.7536 24.1435 98.7536 21.2359V19.2462C98.7536 16.145 100.55 14.8991 102.422 14.8991ZM123.218 10.4123C117.041 10.4123 113.789 13.8931 113.789 20.1315C113.789 28.6904 119.395 30.0686 123.229 30.0686C128.841 30.0686 132.575 27.0468 132.575 20.2092C132.575 13.3715 128.377 10.4123 123.218 10.4123ZM123.141 14.8991C125.857 14.8991 126.933 16.9318 126.933 19.2462V21.2359C126.933 24.039 125.427 25.6601 123.13 25.6601C120.982 25.6601 119.472 24.1435 119.472 21.2359V19.2462C119.472 16.145 121.269 14.8991 123.141 14.8991ZM134.731 29.6885V1.33852L140.45 0.841268V19.8431L146.125 10.7887H152.165L146.246 20.1667L152.394 29.6891H146.336L140.45 20.4429V29.6891H134.731V29.6885Z" fill="white"/>
</g>
<defs>
<clipPath id="clip0_219_1873">
<rect width="151.786" height="29.3773" fill="white" transform="translate(0.607422 0.76416)"/>
</clipPath>
</defs>
</svg>
