<svg width="153" height="39" viewBox="0 0 153 39" fill="none" xmlns="http://www.w3.org/2000/svg">
<path d="M146.702 32.7831H141.003V23.8575C141.003 21.7293 140.965 18.9894 138.039 18.9894C135.113 18.9894 134.616 21.3081 134.616 23.7025V32.7824H128.917V14.4281H134.389V16.9362H134.466C135.581 15.0285 137.656 13.8894 139.864 13.9714C145.641 13.9714 146.705 17.7709 146.705 22.714L146.703 32.7831H146.702ZM122.486 11.9195C120.66 11.9195 119.178 10.4393 119.178 8.61286C119.178 6.78646 120.659 5.305 122.485 5.305C124.311 5.305 125.793 6.78519 125.793 8.61159C125.793 10.438 124.313 11.9195 122.486 11.9195ZM125.336 32.7831H119.631V14.4281H125.336V32.7831ZM149.544 0.0119177H116.767C115.217 -0.00586988 113.948 1.23545 113.928 2.78424V35.697C113.947 37.2471 115.217 38.4891 116.767 38.4725H149.544C151.097 38.4922 152.372 37.2503 152.394 35.697V2.78234C152.371 1.23037 151.096 -0.0103168 149.544 0.0100119M98.4164 18.8585C95.5666 18.8585 93.8571 20.7612 93.8571 23.5335C93.8571 26.3058 95.5659 28.2104 98.4164 28.2104C101.267 28.2104 102.98 26.3109 102.98 23.5335C102.98 20.7561 101.27 18.8585 98.4164 18.8585ZM108.227 32.7723H102.98V30.3379H102.903C101.569 32.1325 99.4729 33.2017 97.2367 33.2277C91.7607 33.2277 88.1536 29.2757 88.1536 23.6866C88.1536 18.5536 91.3458 13.8405 96.5932 13.8405C98.9519 13.8405 101.155 14.486 102.447 16.2749H102.522V5.69506H108.227V32.7723ZM80.8353 21.4638C80.8797 19.577 79.3862 18.0117 77.4995 17.9672C77.4448 17.966 77.3902 17.966 77.3362 17.9672C75.2646 17.8383 73.4718 19.3947 73.3086 21.4638H80.8353ZM85.6633 29.5972C83.7454 31.9229 80.8842 33.2633 77.8698 33.2487C72.1708 33.2487 67.6076 29.4447 67.6076 23.5532C67.6076 17.6617 72.1702 13.8596 77.8698 13.8596C83.1966 13.8596 86.5375 17.6591 86.5375 23.5532V25.3402H73.3092C73.6497 27.436 75.4818 28.96 77.6043 28.9136C79.2528 28.9034 80.7832 28.0592 81.6713 26.6705L85.6633 29.5965V29.5972ZM29.0053 14.4237H34.4782V16.9317H34.5557C35.6693 15.0234 37.7441 13.8837 39.9523 13.9669C45.7321 13.9669 46.7955 17.7697 46.7955 22.7095V32.7748H41.0965V23.8511C41.0965 21.7211 41.0571 18.983 38.1278 18.983C35.1986 18.983 34.7082 21.3024 34.7082 23.6961V32.7723H29.0092L29.0047 14.4237H29.0053ZM49.686 5.69696H55.385V21.8837L61.8444 14.4135H68.8318L61.3515 22.9109L68.6743 32.7837H61.5109L55.4606 23.7114H55.3856V32.7831H49.6866L49.6853 5.6976L49.686 5.69696ZM20.1458 14.4218H25.8449V32.7761H20.1458V14.4218ZM22.9957 5.29674C24.8214 5.29674 26.3016 6.77756 26.301 8.60333C26.301 10.4291 24.8202 11.9093 22.9944 11.9087C21.1686 11.9087 19.6891 10.4285 19.6891 8.6027C19.6891 6.77693 21.1693 5.29674 22.995 5.29674M0.607422 5.70141H6.54023V27.3115H17.5234V32.7862H0.607422V5.70141Z" fill="white"/>
</svg>
