<svg width="153" height="48" viewBox="0 0 153 48" fill="none" xmlns="http://www.w3.org/2000/svg">
<path d="M24.2217 0.0712891C11.1801 0.0712891 0.607422 10.6438 0.607422 23.6852C0.607422 36.7266 11.1801 47.3001 24.2217 47.3001C37.2633 47.3001 47.8359 36.7283 47.8359 23.6852C47.8359 10.6422 37.2644 0.072417 24.2214 0.072417L24.2217 0.0712891ZM35.051 34.1295C34.6269 34.8251 33.7207 35.0431 33.0272 34.6193C27.4819 31.2302 20.5022 30.4646 12.2824 32.3423C11.4903 32.5239 10.7007 32.0273 10.5203 31.2355C10.339 30.4434 10.8332 29.6538 11.6272 29.4733C20.6226 27.4168 28.3385 28.3019 34.5628 32.1053C35.2565 32.5312 35.4764 33.4363 35.0506 34.13L35.0509 34.1295H35.051ZM37.9413 27.7005C37.4072 28.5671 36.2742 28.8389 35.4088 28.3067C29.0626 24.4058 19.3859 23.2758 11.878 25.5549C10.9042 25.8489 9.87588 25.3003 9.58036 24.3283C9.28709 23.3546 9.83608 22.3281 10.8082 22.0321C19.3843 19.43 30.0456 20.6905 37.3348 25.1698C38.2006 25.7026 38.474 26.8364 37.941 27.7009L37.9413 27.7005ZM38.1895 21.0051C30.5775 16.4846 18.0219 16.0689 10.7553 18.2743C9.58857 18.6282 8.35461 17.9695 8.00092 16.8027C7.64723 15.6353 8.30546 14.4021 9.4732 14.0474C17.8146 11.5152 31.6812 12.0044 40.4436 17.2062C41.4932 17.8291 41.8374 19.1846 41.2154 20.2328C40.595 21.2824 39.2359 21.6283 38.1898 21.0051H38.1895ZM64.854 21.8713C60.7768 20.899 60.0509 20.2166 60.0509 18.7827C60.0509 17.428 61.3263 16.5164 63.223 16.5164C65.1197 16.5164 66.8846 17.2086 68.7958 18.6338C68.8537 18.677 68.9262 18.6941 68.9974 18.6828C69.0688 18.672 69.132 18.6329 69.1737 18.574L71.1645 15.7677C71.2464 15.652 71.224 15.4928 71.1137 15.4045C68.839 13.5792 66.2775 12.6918 63.2833 12.6918C58.8809 12.6918 55.8058 15.3338 55.8058 19.1137C55.8058 23.1672 58.4584 24.6026 63.0424 25.7104C66.9439 26.609 67.6023 27.362 67.6023 28.7078C67.6023 30.1992 66.2707 31.1264 64.1279 31.1264C61.748 31.1264 59.8068 30.3248 57.6352 28.4442C57.5813 28.3976 57.5074 28.3765 57.4392 28.3805C57.3674 28.3865 57.3016 28.4197 57.2559 28.4746L55.0237 31.1312C54.93 31.2415 54.942 31.4061 55.0502 31.5015C57.5768 33.7571 60.6843 34.9485 64.0377 34.9485C68.7815 34.9485 71.8469 32.3565 71.8469 28.3447C71.8553 24.958 69.8279 23.0829 64.8622 21.8749L64.8537 21.8712L64.854 21.8713ZM82.5796 17.8502C80.5234 17.8502 78.8368 18.6601 77.446 20.3196V18.4517C77.446 18.3043 77.3264 18.1841 77.1792 18.1841H73.5283C73.3809 18.1841 73.2615 18.3043 73.2615 18.4517V39.2063C73.2615 39.3538 73.3807 39.474 73.5283 39.474H77.1792C77.3263 39.474 77.446 39.3539 77.446 39.2063V32.6549C78.8371 34.216 80.5238 34.9788 82.5796 34.9788C86.4002 34.9788 90.268 32.0378 90.268 26.4155C90.2736 20.7919 86.4048 17.8499 82.5838 17.8499L82.5796 17.8502ZM86.0225 26.4155C86.0225 29.2785 84.2591 31.2764 81.7338 31.2764C79.2085 31.2764 77.3543 29.1878 77.3543 26.4155C77.3543 23.6432 79.2375 21.5547 81.7338 21.5547C84.2182 21.5544 86.0229 23.5982 86.0229 26.4153L86.0225 26.4156V26.4155ZM100.181 17.8502C95.2605 17.8502 91.4059 21.639 91.4059 26.4767C91.4059 31.3145 95.2341 35.0107 100.121 35.0107C105.007 35.0107 108.925 31.2347 108.925 26.4155C108.925 21.5963 105.084 17.8507 100.181 17.8507L100.181 17.8502H100.181ZM100.181 31.3048C97.5638 31.3048 95.5907 29.202 95.5907 26.414C95.5907 23.6261 97.4955 21.5826 100.121 21.5826C102.746 21.5826 104.741 23.6854 104.741 26.4753C104.741 29.2651 102.823 31.3048 100.181 31.3048H100.181H100.181ZM119.432 18.1841H115.415V14.0766C115.415 13.9293 115.296 13.8093 115.148 13.8093H111.498C111.35 13.8093 111.23 13.9295 111.23 14.0766V18.1841H109.475C109.328 18.1841 109.209 18.3041 109.209 18.4517V21.5893C109.209 21.7366 109.328 21.857 109.475 21.857H111.23V29.9756C111.23 33.2564 112.863 34.9198 116.084 34.9198C117.393 34.9198 118.48 34.6495 119.504 34.0689C119.587 34.0223 119.638 33.9327 119.638 33.8373V30.8494C119.638 30.7573 119.59 30.6701 119.511 30.6219C119.432 30.5719 119.333 30.5695 119.251 30.6098C118.548 30.9637 117.868 31.1269 117.108 31.1269C115.937 31.1269 115.414 30.5952 115.414 29.4031V21.8583H119.432C119.579 21.8583 119.698 21.7381 119.698 21.5906V18.4532C119.704 18.3057 119.585 18.1855 119.436 18.1855L119.432 18.1838L119.432 18.1841ZM133.43 18.2002V17.6957C133.43 16.2116 133.999 15.5497 135.275 15.5497C136.036 15.5497 136.647 15.7008 137.332 15.9292C137.416 15.9558 137.504 15.9424 137.573 15.892C137.644 15.8415 137.683 15.7605 137.683 15.6747V12.5984C137.683 12.4807 137.608 12.3768 137.494 12.342C136.771 12.1269 135.845 11.9061 134.46 11.9061C131.088 11.9061 129.305 13.8049 129.305 17.3955V18.1681H127.551C127.404 18.1681 127.284 18.2883 127.284 18.4355V21.5892C127.284 21.7365 127.404 21.8568 127.551 21.8568H129.305V34.3796C129.305 34.527 129.424 34.6472 129.572 34.6472H133.222C133.37 34.6472 133.49 34.527 133.49 34.3796V21.8578H136.899L142.12 34.3773C141.527 35.6928 140.945 35.9545 140.149 35.9545C139.506 35.9545 138.828 35.7624 138.136 35.3834C138.071 35.3477 137.993 35.3417 137.923 35.3634C137.854 35.3879 137.795 35.4398 137.765 35.5075L136.528 38.2221C136.469 38.3504 136.52 38.5011 136.643 38.5676C137.935 39.2673 139.101 39.5658 140.542 39.5658C143.238 39.5658 144.728 38.3101 146.041 34.9319L152.375 18.5655C152.407 18.4832 152.397 18.39 152.347 18.317C152.297 18.2445 152.216 18.2009 152.127 18.2009H148.327C148.213 18.2009 148.111 18.2734 148.074 18.3802L144.18 29.5011L139.916 18.3728C139.877 18.2693 139.777 18.2007 139.667 18.2007H133.429L133.43 18.1999L133.43 18.2002ZM125.314 18.1841H121.663C121.516 18.1841 121.396 18.3041 121.396 18.4517V34.3797C121.396 34.5272 121.516 34.6474 121.663 34.6474H125.314C125.461 34.6474 125.582 34.5272 125.582 34.3797V18.4529C125.582 18.3054 125.463 18.1855 125.316 18.1852C125.315 18.1852 125.315 18.1852 125.314 18.1852L125.314 18.1841H125.314ZM123.51 10.9318C122.063 10.9318 120.89 12.1026 120.89 13.5489C120.89 14.9952 122.063 16.1683 123.51 16.1683C124.956 16.1683 126.128 14.996 126.128 13.5489C126.128 12.1017 124.955 10.9318 123.511 10.9318H123.51Z" fill="white"/>
</svg>
