<svg width="153" height="51" viewBox="0 0 153 51" fill="none" xmlns="http://www.w3.org/2000/svg">
<path d="M145.737 9.62122H139.08V0.300781H124.461L117.739 9.62122H105.793L101.798 13.6154V9.62122H92.4779V0.300781H63.1858V9.62122H21.9773L15.2535 0.300781H0.607422V32.2563L19.2477 50.8966H37.888V45.5709L43.2136 50.8966H79.1633V45.5709L84.4889 50.8966H101.798V45.5709L107.123 50.8966H140.41L152.394 38.9133V16.2782L145.736 9.62061L145.737 9.62122ZM23.2425 22.9359H13.9221V25.5987H23.2425V36.2505H8.59645L3.27084 30.9249V2.96359H13.9227V12.284H23.2431V22.9359H23.2425ZM63.1864 36.2505H31.2309L25.9053 30.9249V12.284H36.5572V25.5987H39.22V12.284H49.8718V25.5987H52.5346V12.284H63.1864V36.2505ZM76.5011 36.2505H65.8493V12.284H76.5011V36.2505ZM76.5011 9.62122H65.8493V2.96359H76.5011V9.62122ZM99.1362 22.9359H89.8157V25.5987H99.1362V36.2505H84.4901L79.1645 30.9249V2.96359H89.8163V12.284H99.1368V22.9359H99.1362ZM123.103 22.9359H112.451V25.5987H123.103V36.2505H107.125L101.8 30.9249V17.6102L107.125 12.2846H123.103V22.9365V22.9359ZM149.732 36.2505H139.08V22.9359H136.417V36.2505H125.765V2.96359H136.417V12.284H144.406L149.732 17.6096V36.2499V36.2505Z" fill="white"/>
</svg>
